<?xml version="1.0" encoding="utf-8"?>
<!-- Generator: Adobe Illustrator 26.0.2, SVG Export Plug-In . SVG Version: 6.00 Build 0)  -->
<svg version="1.1" id="Layer_1" xmlns="http://www.w3.org/2000/svg" xmlns:xlink="http://www.w3.org/1999/xlink" x="0px" y="0px"
	 viewBox="0 0 368.5 367.6" style="enable-background:new 0 0 368.5 367.6;" xml:space="preserve">
<style type="text/css">
	.st0{fill:#BA8D59;}
</style>
<path class="st0" d="M156.9,89.1l-17.2-8l-16.8,7.8l-0.4,0.2c-3.5,1.9-6.8,4-10,6.4c-5,4.1-7.4,8.5-7.4,13.6l0,0V133l12.2,4.1v-27.9
	c0-0.5,0-1.8,2.9-4.2c2.6-1.9,5.3-3.7,8.1-5.2l11.4-5.3l11.5,5.3c5.6,3.2,11,6.5,11,9.3v36.3c0,3.8-1.1,6.6-3.4,8.8
	c-2,1.7-4.4,3-7,3.6c-3,0.8-6.2,1.3-9.3,1.3c-1.6,0-2.1,0-3.4,0v12c0.5,0,1.9,0,3.1,0.1c15.6,1.1,19.9,9.4,19.9,14.5v71.4
	c0,2.9-5.4,6.2-11,9.3l-11.5,5.3l-11.4-5.3c-5.6-3.2-11.1-6.5-11.1-9.4v-50.5l-12.2-4v54.6c0,10.3,9.7,15.7,17.5,20.1l17.2,8
	l16.8-7.8l0.4-0.2c7.4-4.1,17.4-9.8,17.4-20.1v-71.4c-0.3-8-4.3-15.3-10.8-19.9c1.2-0.8,2.4-1.7,3.5-2.6c4.7-4.3,7.2-10.2,7.4-17.2
	l0,0v-36.8C174.3,98.9,164.2,93.3,156.9,89.1z"/>
<path class="st0" d="M215.7,9.9l1.3-8.1l5.3,0.9l-3.1,18.9l-5.3-0.9l1.4-8.3l-5.7-0.9l-1.4,8.3l-5.3-0.9L206.1,0l5.3,0.9L210.1,9
	L215.7,9.9z"/>
<path class="st0" d="M229.6,24.2l12.5-15.9L247,10l0.3,20.4l-5.4-1.9l-0.1-6l-6-2.1l-3.7,4.7L229.6,24.2z M237.4,18.3l4.4,1.6
	l-0.1-7.3L237.4,18.3z"/>
<path class="st0" d="M270.5,48.4l-3.6-2l2.6-4.7L257,34.8l9.3-16.8l4.7,2.6l-8,14.5l5,2.8l8-14.5l4.7,2.6l-8,14.5l1.7,0.9
	L270.5,48.4z"/>
<path class="st0" d="M295,60.5l-4.1-3.4l9.4-11.5L284.6,52l-2.4-2l12.1-14.8l4.2,3.4l-6.2,7.6l10.2-4.3l4.6,3.7L295,60.5z"/>
<path class="st0" d="M325,63.7c1.7,1.9,2.6,4.4,2.6,6.9c-0.3,5.7-5.2,10.1-10.9,9.8c-0.2,0-0.4,0-0.5,0c-2.5-0.4-4.8-1.7-6.4-3.7
	c-1.7-1.9-2.6-4.4-2.6-6.9c0.3-5.7,5.2-10.1,11-9.8c0.2,0,0.3,0,0.5,0C321.2,60.4,323.4,61.7,325,63.7z M314.5,66.8
	c-1.6,1.2-2.8,2.8-3.5,4.6c-0.5,1.2-0.3,2.7,0.6,3.7s2.2,1.5,3.6,1.2c1.9-0.4,3.7-1.4,5.1-2.7c1.6-1.2,2.8-2.7,3.6-4.5
	c0.8-1.8-0.1-4-2-4.7c-0.7-0.3-1.4-0.3-2.2-0.2C317.7,64.5,316,65.5,314.5,66.8L314.5,66.8z"/>
<path class="st0" d="M338.3,98l7.1-4.1l2.7,4.7l-16.6,9.5l-2.7-4.7l7.3-4.2l-2.9-5l-7.3,4.2l-2.7-4.7l16.6-9.5l2.7,4.7l-7.1,4.1
	L338.3,98z"/>
<path class="st0" d="M336,117.8l20.3-0.4l1.8,4.9l-15.6,13.2l-2-5.4l4.6-3.8l-2.2-6l-6,0.2L336,117.8z M345.5,120.1l1.6,4.4l5.6-4.7
	L345.5,120.1z"/>
<path class="st0" d="M347.8,159.9l-1-5.3l16.3-3.1l-0.4-2.2l-17.5-3.5l-0.5-2.8l20.3,4.3l1.7,9L347.8,159.9z"/>
<path class="st0" d="M354.9,188.1c-1.5,0.1-2.9-0.5-3.9-1.5c-1.1-1.2-1.6-2.8-1.6-4.4l-0.2-9.4l19.2-0.4l0.1,5.2l-7.9,0.2v2.4
	c0.2,2-0.3,4.1-1.4,5.8C358.2,187.4,356.6,188.2,354.9,188.1z M354.9,182.9c0.9,0,1.9-0.4,2.5-1.1c0.6-0.8,0.9-1.8,0.8-2.8v-1.1
	l-6.5,0.1v1.2C351.7,181.7,352.8,183,354.9,182.9z"/>
<path class="st0" d="M357.9,212.3l8.1,1.2l-0.8,5.3l-19-2.9l0.8-5.3l8.3,1.3l0.9-5.7l-8.3-1.3l0.8-5.3l19,2.9l-0.8,5.3l-8.1-1.2
	L357.9,212.3z"/>
<path class="st0" d="M358.7,243.4c-0.8,2.4-2.4,4.5-4.6,5.8c-5.1,2.6-11.4,0.6-14-4.5c-0.1-0.1-0.1-0.3-0.2-0.4
	c-1.8-4.9,0.1-10.4,4.5-13.1c5.1-2.6,11.4-0.6,14,4.5c0.1,0.1,0.1,0.3,0.2,0.4C359.6,238.4,359.6,241,358.7,243.4z M350.7,236
	c-1.8-0.7-3.8-1-5.8-0.7c-1.3,0.2-2.5,1.1-2.9,2.4c-0.4,1.3-0.1,2.7,0.8,3.7c2.9,2.7,6.8,4,10.7,3.7c2-0.3,3.3-2.1,3-4.1
	c-0.1-0.7-0.4-1.4-1-2C354.3,237.5,352.6,236.5,350.7,236L350.7,236z"/>
<path class="st0" d="M332,257.3l16.6,9.5l-2.5,4.4l-11.1-1.4l6.8,8.9l-2.6,4.6l-16.6-9.5l2.7-4.6l10.9,6.3l-8.3-10.8l0.2-0.5l13,1.6
	l-10.4-6L332,257.3z"/>
<path class="st0" d="M320.6,307.4l-8.3-20l1.9-2.3l2.7,6.9l14.2,2.7l-3.8,4.6l-8.3-1.9l3.4,7.8L320.6,307.4z"/>
<path class="st0" d="M274.7,327.9c-0.9-1.2-1.2-2.7-0.8-4.2c0.5-1.6,1.6-3,3-3.9l7.9-5.5l11,15.7l-11.5,8l-1.5-2.1l7.2-5l-3.2-4.5
	l-2.1,1.5C280.2,331,276.9,331,274.7,327.9z M279.4,324.8c1.2,1.8,2.9,1.9,5.1,0.3l0.9-0.6l-3.6-5.2l-1,0.7
	C278.7,321.4,278.2,323,279.4,324.8L279.4,324.8z"/>
<path class="st0" d="M263.6,328.1l2.4,20.1l-4.7,2.2l-14.6-14.2l5.1-2.5l4.3,4.2l5.8-2.8l-0.7-5.9L263.6,328.1z M262.2,337.8l-4.3,2
	l5.2,5.1L262.2,337.8z"/>
<path class="st0" d="M228.9,353.5l2.2,7.9l-5.2,1.5l-5.2-18.5l5.2-1.5l2.3,8.1l5.5-1.5l-2.3-8.1l5.2-1.5l5.2,18.5l-5.2,1.5l-2.2-7.9
	L228.9,353.5z"/>
<path class="st0" d="M191.3,348.4l5.9-0.6l6.1,8.9l-4.7,10.2l-2.8,0.3l3.4-7.4L191.3,348.4z M202.6,347.2l5.4-0.5l1.9,19.1l-5.4,0.5
	L202.6,347.2z"/>
<path class="st0" d="M165.6,366.7l11.2-18.6l3,0.2l-4,6.3l6.3,13l-6-0.3l-3.4-7.8l-4.3,7.4L165.6,366.7z"/>
<path class="st0" d="M119.2,355.8l15.6-15.1l2.9,0.9l-5.4,5.1l2.8,14.2l-5.7-1.9l-1.3-8.4l-6,6L119.2,355.8z"/>
<path class="st0" d="M101.7,332.1c0.7-1.6,2.3-2.7,4.1-2.7c1.7-0.1,3.5,0.3,5,1.1c1.2,0.6,2.3,1.5,3.2,2.6c0.8,1.1,1.3,2.5,1.3,3.9
	l-3.1,0.3c0.1-0.8,0-1.6-0.3-2.4c-0.2-0.8-0.8-1.4-1.5-1.8s-1.5-0.3-2.1,0.1s-1.1,1-1.4,1.7c-0.5,0.8-0.7,1.8-0.4,2.7
	c0.5,0.8,1.2,1.5,2.1,1.8l-1.1,2.3c-0.8-0.5-1.8-0.7-2.7-0.6c-0.9,0.4-1.5,1.2-1.8,2.1c-0.3,0.6-0.4,1.3-0.3,1.9
	c0.1,0.7,0.5,1.2,1.2,1.5c1.2,0.6,2.6,0.2,4.2-1.1l1.3,2.4c-2.2,1.6-5.2,1.7-7.5,0.4c-1.4-0.7-2.6-1.8-3.4-3.1
	c-0.8-1.4-0.9-3.1-0.1-4.5c0.5-1,1.4-1.8,2.4-2.2c1.1-0.4,2.2-0.5,3.3-0.2c-1-0.7-1.7-1.7-2.1-2.8
	C101.1,334.4,101.2,333.1,101.7,332.1z"/>
<path class="st0" d="M77.7,316.6c0.8-1.2,2.2-2,3.7-2.2c1.7-0.1,3.4,0.5,4.7,1.5l7.8,5.6L82.7,337l-11.4-8l1.5-2.1L80,332l3.2-4.4
	L81,326C76.6,322.9,75.5,319.7,77.7,316.6z M82.2,320c-1.2,1.7-0.8,3.4,1.4,5l0.9,0.6l3.7-5.2l-1-0.7
	C85.1,318.2,83.4,318.3,82.2,320z"/>
<path class="st0" d="M72.1,304.5l-13.5,13.6l-8.5-8.4l1.8-1.8l4.7,4.7l3.9-4l-4.5-4.4l1.8-1.8l4.5,4.4l4.1-4.2l-5-4.9l1.8-1.8
	L72.1,304.5z"/>
<path class="st0" d="M45.4,273.1l3.5,4.8l-4.6,9.8l-11.2,1.1l-1.7-2.3l8.1-0.8L45.4,273.1z M52.1,282.3l3.2,4.3l-15.4,11.3l-3.2-4.3
	L52.1,282.3z"/>
<path class="st0" d="M32.7,249.4l2.4,4.8l-13.3,6.6l16.9,0.5l1.4,2.8L23,272.7l-2.4-4.8l8.8-4.4l-11.1-0.3l-2.7-5.2L32.7,249.4z"/>
<path class="st0" d="M18.5,221.7c3.8,0.6,6.2,2.9,7.4,6.9c0.8,2.3,0.7,4.8-0.2,7c-1.1,2.8-3.4,4.8-6.3,5.6c-2.6,0.9-5.4,0.6-7.9-0.7
	c-2.4-1.4-4.2-3.7-4.9-6.4c-1-3.1-0.3-6.5,1.9-8.9l2.4,1.9c-2,1.8-2.7,3.8-2.1,5.9c0.4,1.5,1.5,2.7,3,3.1c1.9,0.5,4,0.4,5.9-0.3
	c1.9-0.4,3.6-1.5,4.8-3c1-1.3,1.3-3,0.8-4.5c-0.6-2.1-2.4-3.4-5.4-3.9L18.5,221.7z"/>
<path class="st0" d="M20.6,206l-16.5,2l0.6,5.1l-2.6,0.3L0.3,198l2.6-0.3l0.6,5l16.5-2L20.6,206z"/>
<path class="st0" d="M18.9,188l-19-7.1l0.2-5.2l19.4-6.5l-0.2,5.7l-5.7,1.9l-0.2,6.4l5.6,2.1L18.9,188z M10.9,182.3l0.1-4.7
	l-6.9,2.3L10.9,182.3z"/>
<path class="st0" d="M12.1,145.6l-8-1.6l1.1-5.3l18.8,3.8l-1.1,5.3l-8.2-1.7l-1.1,5.6l8.2,1.7l-1.1,5.3l-18.8-3.8l1.1-5.3l8,1.6
	L12.1,145.6z"/>
<path class="st0" d="M26.9,132.2l-15.5-13.1l1.9-4.8l20.4,0.4l-2.1,5.3l-6-0.2l-2.3,6l4.6,3.8L26.9,132.2z M21.3,124.2l1.7-4.4
	l-7.3-0.2L21.3,124.2z"/>
<path class="st0" d="M47.1,90.9L44,81.3c-0.1-0.4-0.4-0.7-0.7-1c-0.7-0.5-1.4-0.2-2.2,0.9l-1.9,2.6l-2.4-7.4L33,81.7l-1.8-1.3
	L39.4,69l2.5,7.6l0.1-0.1c0.5-0.8,1.3-1.4,2.3-1.7c0.8-0.2,1.7,0,2.4,0.5c0.9,0.8,1.6,1.8,1.9,3l2.4,7.3L47.1,90.9z"/>
<path class="st0" d="M67.2,67.3l-8.5-13.4l-2.8,7.8l-2.3-2.3l1.7-7.7l5.1-4.9l10.5,16.7L67.2,67.3z"/>
<path class="st0" d="M255,87.3v194.8c-2.1,1-6.6,3.8-6.6,3.8s-3.6-2.5-6.3-4.9V101.1l-33.9,22.5l-4-13.4l33.1-23l8.9-3.8l0,0
	C246.2,83.5,254.9,87.2,255,87.3z"/>
<g>
	<path class="st0" d="M98.3,41.8l-8-18.3l8.4-3.8l0.8,1.9l-3.7,1.7l7.1,15.9L98.3,41.8z"/>
	<path class="st0" d="M115,17.4c-1.1-2.8,0.2-5.1,3.6-6.4s5.9-0.4,7,2.4l3.5,9.2c1.1,2.8-0.2,5.1-3.6,6.4s-5.9,0.4-7-2.4L115,17.4z
		 M121.1,25.8c0.5,1.3,1.7,1.4,3.3,0.8c1.6-0.6,2.4-1.5,2-2.7l-3.6-9.5c-0.5-1.3-1.7-1.4-3.3-0.8c-1.6,0.6-2.4,1.5-2,2.7L121.1,25.8
		z"/>
	<path class="st0" d="M151.4,21.1l-0.7-2.9l-8.1,1.9l0.7,2.9l-1.4,0.3l-1.1-4.5l1.2-0.3c0.4-0.7,0.4-1.3,0.3-2.3L140.2,4l8.5-2
		l3.3,14.1l1.3-0.3l1.1,4.5L151.4,21.1z M144.4,15.7c0.2,1.3,0.1,1.9-0.4,2.4l4.9-1.2l-2.7-11.8L142.7,6L144.4,15.7z"/>
</g>
</svg>
