<svg xmlns="http://www.w3.org/2000/svg" width="24" height="24" viewBox="0 0 24 24"><defs><style>.a{fill:#009ea7;}</style></defs><g transform="translate(-0.006 0)"><g transform="translate(0.006 0)"><path class="a" d="M23.992,9.944a.976.976,0,0,0-.057-.253,1.023,1.023,0,0,0-.053-.153c-.008-.015-.007-.031-.016-.046a.981.981,0,0,0-.146-.162.906.906,0,0,0-.081-.1L22.005,7.89V4a1,1,0,0,0-1-1H16.03L12.64.226a1,1,0,0,0-1.267,0L7.983,3H3.006a1,1,0,0,0-1,1V7.89L.373,9.227c-.029.023-.042.06-.068.086a.944.944,0,0,0-.16.179c-.009.015-.008.032-.016.047a.988.988,0,0,0-.053.15.993.993,0,0,0-.057.254c0,.02-.013.037-.013.057V23a1,1,0,0,0,1,1h22a.994.994,0,0,0,.344-.069c.026-.01.051-.019.077-.031a.974.974,0,0,0,.28-.189c.008-.008.013-.018.02-.026a.966.966,0,0,0,.138-.177c.011-.019.011-.04.021-.059a.937.937,0,0,0,.066-.191.961.961,0,0,0,.039-.195A.632.632,0,0,0,24.005,23V10A.515.515,0,0,0,23.992,9.944ZM12.006,2.292,12.872,3H11.141ZM4.006,5h16v5.611l-8,4.727-8-4.728Zm-2,17V11.753L19.348,22Zm20-.753L13.974,16.5l8.032-4.746v9.493Z" transform="translate(-0.006 0)"/></g></g></svg>