<svg xmlns="http://www.w3.org/2000/svg" width="24" height="24" viewBox="0 0 24 24"><defs><style>.a{fill:#009ea7;}</style></defs><g transform="translate(-0.333 0)"><g transform="translate(0.333 0)"><path class="a" d="M24.033,19.264l-3.7-3.74a1.036,1.036,0,0,0-1.282-.153l-3.055,1.884a42.452,42.452,0,0,1-9-8.912l1.89-3.056a1.033,1.033,0,0,0-.146-1.273L5.051.306A1.039,1.039,0,0,0,3.585.3L1.908,1.952A5.444,5.444,0,0,0,.807,8l.155.338a30.007,30.007,0,0,0,15.374,15.2A5.468,5.468,0,0,0,18.518,24a5.406,5.406,0,0,0,3.82-1.587l1.691-1.689A1.034,1.034,0,0,0,24.033,19.264Zm-3.162,1.683a3.334,3.334,0,0,1-3.706.7A27.948,27.948,0,0,1,2.851,7.486L2.7,7.147A3.357,3.357,0,0,1,3.373,3.42L4.306,2.5,6.683,4.894,4.852,7.856A1.035,1.035,0,0,0,4.9,9.023l.37.492a44.437,44.437,0,0,0,9.536,9.444l.487.373a1.036,1.036,0,0,0,1.176.06l2.96-1.825,2.4,2.421Z" transform="translate(-0.333 0)"/></g></g></svg>